<?xml version="1.0" encoding="UTF-8"?>
<svg width="120px" height="118px" viewBox="0 0 120 118" version="1.1" xmlns="http://www.w3.org/2000/svg" xmlns:xlink="http://www.w3.org/1999/xlink">
    <title>fuzion-logo</title>
    <defs>
        <linearGradient x1="79.2013378%" y1="7.78291017%" x2="28.2538431%" y2="96.5502418%" id="linearGradient-1">
            <stop stop-color="#FFECA5" offset="0%"></stop>
            <stop stop-color="#E1B244" offset="100%"></stop>
        </linearGradient>
        <linearGradient x1="50%" y1="0%" x2="50%" y2="100%" id="linearGradient-2">
            <stop stop-color="#212222" offset="0%"></stop>
            <stop stop-color="#1A1B1B" offset="100%"></stop>
        </linearGradient>
        <linearGradient x1="76.279577%" y1="9.69300229%" x2="30.281185%" y2="94.6541847%" id="linearGradient-3">
            <stop stop-color="#F4CB67" offset="0%"></stop>
            <stop stop-color="#C27A14" offset="100%"></stop>
        </linearGradient>
        <path d="M0,26.195 L20.9340551,38.2472606 L31.9411034,31.9018849 L37.31,34.993 L19.6185173,45.1787288 L4.70762453e-05,33.8840466 L0,26.195 Z M0,13.511 L28.0131034,29.6408849 L20.9327534,33.722413 L0,21.67 L0,13.511 Z M18.5200681,11.4917848 L39.236,23.418 L39.236,31.577 L11.3951034,15.5478849 L18.5200681,11.4917848 Z M19.6185173,-1.55693037e-15 L39.2369875,11.2946822 L39.236,18.894 L18.5308406,6.97388495 L7.4981034,13.3038849 L2.003,10.141 L19.6185173,-1.55693037e-15 Z" id="path-4"></path>
        <radialGradient cx="50%" cy="50%" fx="50%" fy="50%" r="50.1387995%" gradientTransform="translate(0.500000,0.500000),scale(0.784307,1.000000),rotate(85.735728),scale(1.000000,1.286337),translate(-0.500000,-0.500000)" id="radialGradient-6">
            <stop stop-color="#EC9B27" stop-opacity="0" offset="0%"></stop>
            <stop stop-color="#FFFFFF" stop-opacity="0.495184625" offset="100%"></stop>
        </radialGradient>
        <ellipse id="path-7" cx="36.5266486" cy="36.4885281" rx="35.4940931" ry="35.4570503"></ellipse>
        <filter x="-4.2%" y="-4.2%" width="108.5%" height="108.5%" filterUnits="objectBoundingBox" id="filter-8">
            <feOffset dx="0" dy="0" in="SourceAlpha" result="shadowOffsetOuter1"></feOffset>
            <feMorphology radius="2.97" operator="erode" in="SourceAlpha" result="shadowInner"></feMorphology>
            <feOffset dx="0" dy="0" in="shadowInner" result="shadowInner"></feOffset>
            <feComposite in="shadowOffsetOuter1" in2="shadowInner" operator="out" result="shadowOffsetOuter1"></feComposite>
            <feGaussianBlur stdDeviation="1" in="shadowOffsetOuter1" result="shadowBlurOuter1"></feGaussianBlur>
            <feColorMatrix values="0 0 0 0 0   0 0 0 0 0   0 0 0 0 0  0 0 0 0.5 0" type="matrix" in="shadowBlurOuter1"></feColorMatrix>
        </filter>
    </defs>
    <g id="Page-1" stroke="none" stroke-width="1" fill="none" fill-rule="evenodd">
        <g id="fuzion-logo" transform="translate(0.907104, 1.000000)">
            <g id="fuzion-seal-final-2-copy" transform="translate(24.195316, -0.000000)">
                <g id="Group-5-Copy" transform="translate(36.397579, 36.359593) scale(-1, 1) translate(-36.397579, -36.359593) ">
                    <ellipse id="Oval-Copy-7" stroke="url(#linearGradient-1)" stroke-width="0.99" fill="#1A1B1B" cx="36.3975791" cy="36.3595934" rx="36.3975791" ry="36.3595934"></ellipse>
                    <ellipse id="Oval-Copy-5" fill="url(#linearGradient-2)" cx="36.3975791" cy="36.3595934" rx="29.9441077" ry="29.912857"></ellipse>
                    <g id="Oval-Copy-6" style="mix-blend-mode: screen;" transform="translate(16.753398, 13.847590)">
                        <mask id="mask-5" fill="white">
                            <use xlink:href="#path-4"></use>
                        </mask>
                        <use id="Mask" stroke="url(#linearGradient-3)" stroke-width="0.5" fill="#EC9B27" xlink:href="#path-4"></use>
                        <ellipse id="Oval" fill="url(#radialGradient-6)" opacity="0.746029082" mask="url(#mask-5)" cx="14.4557322" cy="7.42664035" rx="24.9877657" ry="19.5980787"></ellipse>
                    </g>
                    <g id="Oval-Copy-4">
                        <use fill="black" fill-opacity="1" filter="url(#filter-8)" xlink:href="#path-7"></use>
                        <ellipse stroke="#202121" stroke-width="2.97" stroke-linejoin="square" cx="36.5266486" cy="36.4885281" rx="34.0090931" ry="33.9720503"></ellipse>
                    </g>
                </g>
            </g>
            <path d="M17.2265625,98.4933994 L17.2265625,93.8945224 L0,93.8945224 L0,98.4933994 L17.2265625,98.4933994 Z M5.32177734,116.073722 L5.32177734,107.568106 L11.8125,107.568106 L11.8125,102.969229 L0,102.969229 L0,116.073722 L5.32177734,116.073722 Z M29.7927246,116.458243 C31.3000488,116.458243 32.6740723,116.248038 33.9147949,115.827628 C35.1555176,115.38671 36.206543,114.745841 37.0678711,113.90502 C37.9189453,113.053946 38.5700684,112.013175 39.0212402,110.782706 C39.482666,109.531729 39.7133789,108.070548 39.7133789,106.399161 L39.7133789,106.399161 L39.7133789,93.8637607 L34.3608398,93.8637607 L34.3608398,106.599112 C34.3608398,108.362784 33.9609375,109.675284 33.1611328,110.536612 C32.3408203,111.377433 31.2385254,111.797843 29.854248,111.797843 C28.4699707,111.797843 27.3676758,111.356925 26.5473633,110.475089 C25.7475586,109.613761 25.3476562,108.265372 25.3476562,106.429923 L25.3476562,106.429923 L25.3476562,93.8637607 L19.9951172,93.8637607 L19.9951172,106.568351 C19.9951172,109.808585 20.8666992,112.264395 22.6098633,113.935782 C24.3427734,115.617423 26.7370605,116.458243 29.7927246,116.458243 Z M61.354248,116.104483 L61.354248,111.659415 L49.2802734,111.659415 L61.354248,97.6474521 L61.354248,93.8637607 L42.4819336,93.8637607 L42.4819336,98.3088291 L54.5405273,98.3088291 L42.4819336,112.320792 L42.4819336,116.104483 L61.354248,116.104483 Z M69.4753418,116.104483 L69.4753418,93.8637607 L64.1228027,93.8637607 L64.1228027,116.104483 L69.4753418,116.104483 Z M83.8410645,116.135245 C85.5739746,116.135245 87.1479492,115.843009 88.5629883,115.258536 C90.0087891,114.653556 91.2341309,113.843497 92.2390137,112.82836 C93.2746582,111.782462 94.0847168,110.598136 94.6691895,109.275382 C95.2331543,107.93212 95.5151367,106.5017 95.5151367,104.984122 L95.5151367,104.984122 L95.5151367,104.922599 C95.5151367,103.384513 95.2331543,101.948966 94.6691895,100.615958 C94.1052246,99.2932041 93.3105469,98.1242588 92.2851562,97.109122 C91.2700195,96.0939853 90.0498047,95.2890537 88.6245117,94.6943271 C87.2094727,94.0996006 85.635498,93.8022373 83.9025879,93.8022373 C82.2004395,93.8022373 80.6367188,94.0996006 79.2114258,94.6943271 C77.765625,95.2890537 76.5249023,96.1042392 75.4892578,97.1398838 C74.4741211,98.1652744 73.6743164,99.3444736 73.0898438,100.677481 C72.5258789,102.010489 72.2438965,103.446036 72.2438965,104.984122 L72.2438965,104.984122 L72.2438965,105.045645 C72.2438965,106.563224 72.5258789,107.993644 73.0898438,109.336905 C73.6640625,110.669913 74.4536133,111.833731 75.4584961,112.82836 C76.4941406,113.843497 77.7246094,114.653556 79.1499023,115.258536 C80.5751953,115.843009 82.138916,116.135245 83.8410645,116.135245 Z M83.9025879,111.597892 C83.020752,111.597892 82.2004395,111.433829 81.4416504,111.105704 C80.6828613,110.777579 80.0214844,110.311026 79.4575195,109.706046 C78.8935547,109.101065 78.4526367,108.398673 78.1347656,107.598868 C77.8168945,106.768302 77.657959,105.89672 77.657959,104.984122 L77.657959,104.984122 L77.657959,104.922599 C77.657959,103.979239 77.8168945,103.107657 78.1347656,102.307853 C78.4526367,101.518302 78.8935547,100.826163 79.4575195,100.231437 C79.9907227,99.626456 80.6315918,99.1650303 81.380127,98.8471592 C82.138916,98.5087803 82.9592285,98.3395908 83.8410645,98.3395908 C84.7229004,98.3395908 85.5380859,98.5087803 86.2866211,98.8471592 C87.0454102,99.195792 87.7067871,99.6674717 88.270752,100.262198 C88.8449707,100.856925 89.2858887,101.559317 89.5935059,102.369376 C89.911377,103.169181 90.0703125,104.040763 90.0703125,104.984122 L90.0703125,104.984122 L90.0703125,105.045645 C90.0703125,105.958243 89.911377,106.819571 89.5935059,107.62963 C89.2961426,108.449942 88.8654785,109.152335 88.3015137,109.736808 C87.7683105,110.331534 87.1223145,110.798087 86.3635254,111.136466 C85.6047363,111.444083 84.7844238,111.597892 83.9025879,111.597892 Z M103.574707,116.135245 L103.574707,102.661612 L113.849121,116.135245 L118.417236,116.135245 L118.417236,93.8637607 L113.095459,93.8637607 L113.095459,106.906729 L103.159424,93.8637607 L98.2836914,93.8637607 L98.2836914,116.135245 L103.574707,116.135245 Z" id="FUZION" fill="#EEA63F" fill-rule="nonzero"></path>
        </g>
    </g>
</svg>