<?xml version="1.0" encoding="UTF-8"?>
<svg width="311px" height="358px" viewBox="0 0 311 358" version="1.1" xmlns="http://www.w3.org/2000/svg" xmlns:xlink="http://www.w3.org/1999/xlink">
    <title>fuzion-nft-white copy</title>
    <g id="Page-1" stroke="none" stroke-width="1" fill="none" fill-rule="evenodd">
        <g id="Mask" transform="translate(0.353931, 0.000000)" fill="#FFFFFF">
            <path d="M0,224.998 L154.915439,315.392454 L257.289913,256.152996 L294.315,277.556 L155.00014,358 L0.000280470047,268.5 L0,224.998 Z M271.872,146.688 L309.999,168.736 L309.999,250.792 L271.872,228.771 L271.872,146.688 Z M0,107.415 L37.71,129.215 L37.71,211.275 L0,189.25 L0,107.415 Z M155.00014,-1.30063487e-14 L310,89.5 L309.999,132.827 L154.779099,43.058996 L53.1779128,102.456996 L15.374,80.622 L155.00014,-1.30063487e-14 Z" id="Combined-Shape" transform="translate(155.000000, 179.000000) scale(1, -1) translate(-155.000000, -179.000000) "></path>
            <g id="Group-10" transform="translate(67.533533, 78.272111)">
                <path d="M87.8831497,1.13686838e-13 L175.766299,50.7633357 L175.766299,84.3453281 L146.127007,101.526671 L146.127007,169.429928 L117.005078,186.233992 L117.005078,118.288039 L87.8831497,135.095204 L87.8831497,203.049879 L58.6918868,186.196303 L29.191,130.152 L29.1912629,169.152576 L2.27373675e-13,152.290007 L2.27373675e-13,50.7633357 L29.1912629,67.6293677 L58.691,123.673 L58.6918868,84.6676509 L87.8831497,101.526671 L146.571,67.627 L87.5755192,33.5405279 L74.625,41.1 L106.384442,59.4636562 L77.1976593,76.3301236 L45.588,58.049 L29.1912629,67.6210421 L2.27373675e-13,50.7633357 L87.8831497,1.13686838e-13 Z" id="Combined-Shape"></path>
                <g id="Group-9">
                    <path d="M29.191,130.151336 L29.1912629,169.152576 L0,152.290007 L0,50.7633357 L29.1912629,67.6293677 L58.691,123.673336 L58.6918868,84.6676509 L87.8831497,101.526671 L87.8831497,203.049879 L58.6918868,186.196303 L29.191,130.151336 Z" id="Combined-Shape"></path>
                    <polygon id="Path-10-Copy" points="87.8831497 101.526671 175.766299 50.7633357 175.766299 84.3453281 146.127007 101.526671 146.127007 169.429928 117.005078 186.233992 117.005078 118.288039 87.8831497 135.095204"></polygon>
                    <path d="M87.8831497,0 L175.766299,50.7633357 L146.575037,67.6298031 L87.5755192,33.5405279 L74.621,41.103 L106.384442,59.4636562 L77.1976593,76.3301236 L45.593,58.052 L29.1912629,67.6298031 L0,50.7633357 L87.8831497,0 Z" id="Combined-Shape"></path>
                </g>
            </g>
        </g>
    </g>
</svg>