<svg xmlns="http://www.w3.org/2000/svg" xmlns:xlink="http://www.w3.org/1999/xlink" width="43.316" height="50.001" viewBox="0 0 43.316 50.001"><defs><linearGradient id="linear-gradient" x1="1" x2="0" y1=".769" y2=".769" gradientUnits="objectBoundingBox"><stop offset="0" stop-color="#eeb462"/><stop offset=".496" stop-color="#d17e29"/><stop offset="1" stop-color="#ea9d32"/></linearGradient><linearGradient id="linear-gradient-2" x1="1" x2="0" y1=".769" y2=".769" gradientUnits="objectBoundingBox"><stop offset="0" stop-color="#eeb462"/><stop offset=".799" stop-color="#d17e29"/><stop offset="1" stop-color="#ea9d32"/></linearGradient><linearGradient id="linear-gradient-4" x1="1" x2="0" y1=".769" y2=".769" gradientUnits="objectBoundingBox"><stop offset="0" stop-color="#eeb462"/><stop offset=".977" stop-color="#d17e29"/><stop offset="1" stop-color="#ea9d32"/></linearGradient></defs><g id="Oval" transform="translate(0 0.001)"><g id="Mask"><path id="Combined_Shape" fill="#ec9b27" d="M21.658-50h0L0-37.5v6.076L21.647-44.05l14.3,8.274,5.174-2.989L21.659-50ZM43.316-35.026h0l-5.325,3.074v11.465l5.327-3.079V-35.026ZM5.27-29.508h0L0-26.432V-15l5.27-3.045V-29.508ZM43.316-18.551h0L21.628-6.014l-14.2-8.3L2.149-11.26,21.658,0,43.316-12.5v-6.051Z" data-name="Combined Shape" transform="translate(0 50)"/><g id="Group_10" data-name="Group 10" transform="translate(9.437 10.932)"><path id="Combined_Shape-2" fill="url(#linear-gradient)" d="M8.2,26.006,4.079,18.178v5.447L0,21.27V7.09L12.28,0,24.56,7.09v4.69l-4.142,2.4v9.484L16.349,26.01V16.52l-4.07,2.347V14.18l8.2-4.734L12.237,4.685,10.428,5.74l4.438,2.565-4.079,2.355L6.37,8.108,4.079,9.445,0,7.09,4.079,9.446,8.2,17.272V11.825L12.28,14.18v14.18Z" data-name="Combined Shape" transform="translate(0 0)"/><g id="Group_9" data-name="Group 9" transform="translate(0 0)"><path id="Combined_Shape-3" fill="url(#linear-gradient-2)" d="M8.2,18.915,4.079,11.087v5.447L0,14.18V0L4.079,2.355,8.2,10.182V4.735L12.28,7.09V21.269Z" data-name="Combined Shape" transform="translate(0 7.09)"/><path id="Path_10_Copy" fill="url(#linear-gradient)" d="M0,7.09,12.28,0V4.69L8.138,7.09v9.484L4.069,18.92V9.431L0,11.778Z" data-name="Path 10 Copy" transform="translate(12.28 7.09)"/><path id="Combined_Shape-4" fill="url(#linear-gradient-4)" d="M6.371,8.108,4.079,9.446,0,7.09,12.28,0,24.56,7.09,20.481,9.446,12.237,4.685,10.427,5.741l4.439,2.564-4.079,2.355Z" data-name="Combined Shape"/></g></g></g></g></svg>